  0
SECTION
  2
HEADER
  9
$MEASUREMENT
  70
  1
  9
$INSUNITS
  70
  4
  0
ENDSEC
  0
SECTION
  2
TABLES
  0
TABLE
  2
LTYPE
 70
     1
  0
LTYPE
  2
CONTINUOUS
 70
    64
  3
Ausgezogene Linie
 72
    65
 73
     0
 40
0.0
  0
ENDTAB
  0
TABLE
  2
LAYER
 70
     3
  0
LAYER
  2
Contour
 70
    64
 62
     7
  6
CONTINUOUS
  0
LAYER
  2
Engraving
 70
    64
 62
     7
  6
CONTINUOUS
  0
LAYER
  2
Reference_points
 70
    64
 62
     1
  6
CONTINUOUS
  0
ENDTAB
  0
TABLE
  2
STYLE
 70
     1
  0
STYLE
  2
TXT
 70
    64
 40
0.0
 41
1.0
 50
0.0
 71
     0
 42
3.500000
  3
TXT
  0
ENDTAB
  0
ENDSEC
  0
SECTION
  2
BLOCKS
  0
ENDSEC
  0
SECTION
  2
ENTITIES
  0
LINE
  8
Contour
 62
   7
 39
0.100
  6
CONTINUOUS
 10
40.30000
 20
128.40000
 30
 0
 11
40.30000
 21
0.00000
  0
LINE
  8
Contour
 62
   7
 39
0.100
  6
CONTINUOUS
 10
40.30000
 20
0.00000
 30
 0
 11
0.00000
 21
0.00000
  0
LINE
  8
Contour
 62
   7
 39
0.100
  6
CONTINUOUS
 10
0.00000
 20
0.00000
 30
 0
 11
0.00000
 21
128.40000
  0
LINE
  8
Contour
 62
   7
 39
0.100
  6
CONTINUOUS
 10
0.00000
 20
128.40000
 30
 0
 11
40.30000
 21
128.40000
  0
ARC
  8
Engraving
 62
   254
 39
0.400
  6
CONTINUOUS
 10
9.21202
 20
8.22033
 30
 0
 40
0.91129
 50
180.00000
 51
360.00000
  0
LINE
  8
Engraving
 62
   254
 39
0.400
  6
CONTINUOUS
 10
10.12331
 20
8.22033
 30
 0
 11
10.12331
 21
9.07467
  0
ARC
  8
Engraving
 62
   254
 39
0.400
  6
CONTINUOUS
 10
9.21202
 20
9.07467
 30
 0
 40
0.91129
 50
0.00000
 51
180.00000
  0
LINE
  8
Engraving
 62
   254
 39
0.400
  6
CONTINUOUS
 10
8.30073
 20
9.07467
 30
 0
 11
8.30073
 21
8.22033
  0
ARC
  8
Engraving
 62
   254
 39
0.400
  6
CONTINUOUS
 10
11.64141
 20
9.15623
 30
 0
 40
0.83504
 50
28.82122
 51
181.68902
  0
LINE
  8
Engraving
 62
   254
 39
0.400
  6
CONTINUOUS
 10
10.80673
 20
9.13162
 30
 0
 11
10.80673
 21
8.16338
  0
ARC
  8
Engraving
 62
   254
 39
0.400
  6
CONTINUOUS
 10
11.66256
 20
8.16480
 30
 0
 40
0.85583
 50
180.09515
 51
338.42706
  0
LINE
  8
Engraving
 62
   254
 39
0.400
  6
CONTINUOUS
 10
13.14173
 20
9.92800
 30
 0
 11
14.85040
 21
9.92800
  0
LINE
  8
Engraving
 62
   254
 39
0.400
  6
CONTINUOUS
 10
14.85040
 20
9.92800
 30
 0
 11
13.99607
 21
9.92800
  0
LINE
  8
Engraving
 62
   254
 39
0.400
  6
CONTINUOUS
 10
13.99607
 20
9.92800
 30
 0
 11
13.99607
 21
7.36500
  0
LINE
  8
Engraving
 62
   254
 39
0.400
  6
CONTINUOUS
 10
15.53373
 20
8.64650
 30
 0
 11
16.95762
 21
8.64650
  0
LINE
  8
Engraving
 62
   254
 39
0.400
  6
CONTINUOUS
 10
17.24240
 20
9.92800
 30
 0
 11
15.53373
 21
9.92800
  0
LINE
  8
Engraving
 62
   254
 39
0.400
  6
CONTINUOUS
 10
15.53373
 20
9.92800
 30
 0
 11
15.53373
 21
7.36500
  0
LINE
  8
Engraving
 62
   254
 39
0.400
  6
CONTINUOUS
 10
15.53373
 20
7.36500
 30
 0
 11
17.24240
 21
7.36500
  0
LINE
  8
Engraving
 62
   254
 39
0.400
  6
CONTINUOUS
 10
17.92573
 20
7.36500
 30
 0
 11
17.92573
 21
9.92800
  0
LINE
  8
Engraving
 62
   254
 39
0.400
  6
CONTINUOUS
 10
17.92573
 20
9.92800
 30
 0
 11
19.63440
 21
7.36500
  0
LINE
  8
Engraving
 62
   254
 39
0.400
  6
CONTINUOUS
 10
19.63440
 20
7.36500
 30
 0
 11
19.63440
 21
9.92800
  0
LINE
  8
Engraving
 62
   254
 39
0.400
  6
CONTINUOUS
 10
20.31773
 20
9.92800
 30
 0
 11
20.31773
 21
8.16238
  0
ARC
  8
Engraving
 62
   254
 39
0.400
  6
CONTINUOUS
 10
21.17207
 20
8.16238
 30
 0
 40
0.85433
 50
180.00000
 51
360.00000
  0
LINE
  8
Engraving
 62
   254
 39
0.400
  6
CONTINUOUS
 10
22.02640
 20
8.16238
 30
 0
 11
22.02640
 21
9.92800
  0
LINE
  8
Engraving
 62
   254
 39
0.400
  6
CONTINUOUS
 10
22.99451
 20
8.07694
 30
 0
 11
24.41840
 21
8.07694
  0
LINE
  8
Engraving
 62
   254
 39
0.400
  6
CONTINUOUS
 10
22.70973
 20
7.36500
 30
 0
 11
23.70646
 21
9.92800
  0
LINE
  8
Engraving
 62
   254
 39
0.400
  6
CONTINUOUS
 10
23.70646
 20
9.92800
 30
 0
 11
24.70318
 21
7.36500
  0
LINE
  8
Engraving
 62
   254
 39
0.400
  6
CONTINUOUS
 10
25.38573
 20
9.92800
 30
 0
 11
27.09440
 21
9.92800
  0
LINE
  8
Engraving
 62
   254
 39
0.400
  6
CONTINUOUS
 10
27.09440
 20
9.92800
 30
 0
 11
26.24007
 21
9.92800
  0
LINE
  8
Engraving
 62
   254
 39
0.400
  6
CONTINUOUS
 10
26.24007
 20
9.92800
 30
 0
 11
26.24007
 21
7.36500
  0
ARC
  8
Engraving
 62
   254
 39
0.400
  6
CONTINUOUS
 10
28.68902
 20
8.21933
 30
 0
 40
0.91129
 50
180.00000
 51
360.00000
  0
LINE
  8
Engraving
 62
   254
 39
0.400
  6
CONTINUOUS
 10
29.60031
 20
8.21933
 30
 0
 11
29.60031
 21
9.07367
  0
ARC
  8
Engraving
 62
   254
 39
0.400
  6
CONTINUOUS
 10
28.68902
 20
9.07367
 30
 0
 40
0.91129
 50
0.00000
 51
180.00000
  0
LINE
  8
Engraving
 62
   254
 39
0.400
  6
CONTINUOUS
 10
27.77773
 20
9.07367
 30
 0
 11
27.77773
 21
8.21933
  0
LINE
  8
Engraving
 62
   254
 39
0.400
  6
CONTINUOUS
 10
30.28373
 20
7.36500
 30
 0
 11
30.28373
 21
9.92800
  0
LINE
  8
Engraving
 62
   254
 39
0.400
  6
CONTINUOUS
 10
30.28373
 20
9.92800
 30
 0
 11
31.22350
 21
9.92800
  0
ARC
  8
Engraving
 62
   254
 39
0.400
  6
CONTINUOUS
 10
31.22350
 20
9.28725
 30
 0
 40
0.64075
 50
-90.00000
 51
90.00000
  0
LINE
  8
Engraving
 62
   254
 39
0.400
  6
CONTINUOUS
 10
31.22350
 20
8.64650
 30
 0
 11
30.28373
 21
8.64650
  0
LINE
  8
Engraving
 62
   254
 39
0.400
  6
CONTINUOUS
 10
30.28373
 20
8.64650
 30
 0
 11
31.28046
 21
8.64650
  0
LINE
  8
Engraving
 62
   254
 39
0.400
  6
CONTINUOUS
 10
31.28046
 20
8.64650
 30
 0
 11
31.85001
 21
7.36500
  0
LINE
  8
Engraving
 62
   254
 39
0.400
  6
CONTINUOUS
 10
9.87273
 20
102.79944
 30
 0
 11
10.44229
 21
103.36900
  0
LINE
  8
Engraving
 62
   254
 39
0.400
  6
CONTINUOUS
 10
10.44229
 20
103.36900
 30
 0
 11
10.44229
 21
100.80600
  0
LINE
  8
Engraving
 62
   254
 39
0.400
  6
CONTINUOUS
 10
29.29821
 20
103.11670
 30
 0
 11
29.46908
 21
103.25909
  0
ARC
  8
Engraving
 62
   254
 39
0.400
  6
CONTINUOUS
 10
29.93078
 20
102.72406
 30
 0
 40
0.70669
 50
-40.79241
 51
130.79241
  0
LINE
  8
Engraving
 62
   254
 39
0.400
  6
CONTINUOUS
 10
30.46580
 20
102.26237
 30
 0
 11
29.26973
 21
100.81000
  0
LINE
  8
Engraving
 62
   254
 39
0.400
  6
CONTINUOUS
 10
29.26973
 20
100.81000
 30
 0
 11
30.69362
 21
100.81000
  0
ARC
  8
Engraving
 62
   254
 39
0.400
  6
CONTINUOUS
 10
10.13609
 20
75.71320
 30
 0
 40
0.74777
 50
90.37438
 51
157.00576
  0
ARC
  8
Engraving
 62
   254
 39
0.400
  6
CONTINUOUS
 10
10.13120
 20
75.79173
 30
 0
 40
0.66923
 50
-90.00000
 51
90.00000
  0
ARC
  8
Engraving
 62
   254
 39
0.400
  6
CONTINUOUS
 10
10.13120
 20
74.45327
 30
 0
 40
0.66923
 50
-90.00000
 51
90.00000
  0
ARC
  8
Engraving
 62
   254
 39
0.400
  6
CONTINUOUS
 10
10.13509
 20
74.57588
 30
 0
 40
0.79185
 50
209.76844
 51
269.71869
  0
LINE
  8
Engraving
 62
   254
 39
0.400
  6
CONTINUOUS
 10
30.08307
 20
76.40300
 30
 0
 11
29.22873
 21
74.26717
  0
LINE
  8
Engraving
 62
   254
 39
0.400
  6
CONTINUOUS
 10
29.22873
 20
74.26717
 30
 0
 11
30.65262
 21
74.26717
  0
LINE
  8
Engraving
 62
   254
 39
0.400
  6
CONTINUOUS
 10
30.65262
 20
74.26717
 30
 0
 11
30.36784
 21
74.26717
  0
LINE
  8
Engraving
 62
   254
 39
0.400
  6
CONTINUOUS
 10
30.36784
 20
74.26717
 30
 0
 11
30.36784
 21
74.69433
  0
LINE
  8
Engraving
 62
   254
 39
0.400
  6
CONTINUOUS
 10
30.36784
 20
74.69433
 30
 0
 11
30.36784
 21
73.84000
  0
LINE
  8
Engraving
 62
   254
 39
0.400
  6
CONTINUOUS
 10
10.71571
 20
49.42600
 30
 0
 11
9.43421
 21
49.42600
  0
LINE
  8
Engraving
 62
   254
 39
0.400
  6
CONTINUOUS
 10
9.43421
 20
49.42600
 30
 0
 11
9.43421
 21
48.22993
  0
ARC
  8
Engraving
 62
   254
 39
0.400
  6
CONTINUOUS
 10
10.03024
 20
47.45773
 30
 0
 40
0.97548
 50
84.85750
 51
127.66291
  0
ARC
  8
Engraving
 62
   254
 39
0.400
  6
CONTINUOUS
 10
10.03992
 20
47.60886
 30
 0
 40
0.82410
 50
-44.24474
 51
84.58605
  0
ARC
  8
Engraving
 62
   254
 39
0.400
  6
CONTINUOUS
 10
10.08124
 20
47.57252
 30
 0
 40
0.76914
 50
208.56608
 51
315.54698
  0
ARC
  8
Engraving
 62
   254
 39
0.400
  6
CONTINUOUS
 10
30.05016
 20
47.68586
 30
 0
 40
0.74042
 50
0.00000
 51
180.00000
  0
LINE
  8
Engraving
 62
   254
 39
0.400
  6
CONTINUOUS
 10
30.79058
 20
47.68586
 30
 0
 11
30.79058
 21
47.54347
  0
ARC
  8
Engraving
 62
   254
 39
0.400
  6
CONTINUOUS
 10
30.05016
 20
47.54347
 30
 0
 40
0.74042
 50
-180.00000
 51
0.00000
  0
LINE
  8
Engraving
 62
   254
 39
0.400
  6
CONTINUOUS
 10
29.30973
 20
47.54347
 30
 0
 11
29.30973
 21
48.65410
  0
ARC
  8
Engraving
 62
   254
 39
0.400
  6
CONTINUOUS
 10
30.09850
 20
48.68557
 30
 0
 40
0.78940
 50
45.86651
 51
182.28449
  0
LINE
  8
Engraving
 62
   254
 39
0.400
  6
CONTINUOUS
 10
9.39573
 20
22.26083
 30
 0
 11
9.39573
 21
22.68800
  0
LINE
  8
Engraving
 62
   254
 39
0.400
  6
CONTINUOUS
 10
9.39573
 20
22.68800
 30
 0
 11
10.81962
 21
22.68800
  0
LINE
  8
Engraving
 62
   254
 39
0.400
  6
CONTINUOUS
 10
10.81962
 20
22.68800
 30
 0
 11
9.68051
 21
20.12500
  0
ARC
  8
Engraving
 62
   254
 39
0.400
  6
CONTINUOUS
 10
29.90316
 20
20.81347
 30
 0
 40
0.74042
 50
-90.00000
 51
90.00000
  0
ARC
  8
Engraving
 62
   254
 39
0.400
  6
CONTINUOUS
 10
29.90316
 20
20.81347
 30
 0
 40
0.74042
 50
90.00000
 51
270.00000
  0
ARC
  8
Engraving
 62
   254
 39
0.400
  6
CONTINUOUS
 10
29.90316
 20
22.15192
 30
 0
 40
0.59803
 50
270.00000
 51
450.00000
  0
ARC
  8
Engraving
 62
   254
 39
0.400
  6
CONTINUOUS
 10
29.90316
 20
22.15192
 30
 0
 40
0.59803
 50
90.00000
 51
270.00000
  0
CIRCLE
  8
Contour
 62
   7
 39
0.100
  6
CONTINUOUS
 10
10.16000
 20
112.01000
 30
 0
 40
3.75000
  0
CIRCLE
  8
Contour
 62
   7
 39
0.100
  6
CONTINUOUS
 10
29.97000
 20
112.01000
 30
 0
 40
3.75000
  0
CIRCLE
  8
Contour
 62
   7
 39
0.100
  6
CONTINUOUS
 10
10.16000
 20
85.09000
 30
 0
 40
3.75000
  0
CIRCLE
  8
Contour
 62
   7
 39
0.100
  6
CONTINUOUS
 10
29.97000
 20
85.09000
 30
 0
 40
3.75000
  0
CIRCLE
  8
Contour
 62
   7
 39
0.100
  6
CONTINUOUS
 10
10.16000
 20
58.16000
 30
 0
 40
3.75000
  0
CIRCLE
  8
Contour
 62
   7
 39
0.100
  6
CONTINUOUS
 10
29.97000
 20
58.16000
 30
 0
 40
3.75000
  0
CIRCLE
  8
Contour
 62
   7
 39
0.100
  6
CONTINUOUS
 10
10.16000
 20
31.24000
 30
 0
 40
3.75000
  0
CIRCLE
  8
Contour
 62
   7
 39
0.100
  6
CONTINUOUS
 10
29.97000
 20
31.24000
 30
 0
 40
3.75000
  0
CIRCLE
  8
Contour
 62
   7
 39
0.100
  6
CONTINUOUS
 10
4.95000
 20
17.14000
 30
 0
 40
3.10000
  0
CIRCLE
  8
Contour
 62
   7
 39
0.100
  6
CONTINUOUS
 10
15.36000
 20
17.14000
 30
 0
 40
3.10000
  0
CIRCLE
  8
Contour
 62
   7
 39
0.100
  6
CONTINUOUS
 10
24.76000
 20
17.14000
 30
 0
 40
3.10000
  0
CIRCLE
  8
Contour
 62
   7
 39
0.100
  6
CONTINUOUS
 10
35.17000
 20
17.14000
 30
 0
 40
3.10000
  0
CIRCLE
  8
Contour
 62
   7
 39
0.100
  6
CONTINUOUS
 10
4.95000
 20
44.06000
 30
 0
 40
3.10000
  0
CIRCLE
  8
Contour
 62
   7
 39
0.100
  6
CONTINUOUS
 10
15.36000
 20
44.06000
 30
 0
 40
3.10000
  0
CIRCLE
  8
Contour
 62
   7
 39
0.100
  6
CONTINUOUS
 10
24.76000
 20
44.06000
 30
 0
 40
3.10000
  0
CIRCLE
  8
Contour
 62
   7
 39
0.100
  6
CONTINUOUS
 10
35.17000
 20
44.06000
 30
 0
 40
3.10000
  0
CIRCLE
  8
Contour
 62
   7
 39
0.100
  6
CONTINUOUS
 10
4.95000
 20
70.99000
 30
 0
 40
3.10000
  0
CIRCLE
  8
Contour
 62
   7
 39
0.100
  6
CONTINUOUS
 10
15.36000
 20
70.99000
 30
 0
 40
3.10000
  0
CIRCLE
  8
Contour
 62
   7
 39
0.100
  6
CONTINUOUS
 10
24.76000
 20
70.99000
 30
 0
 40
3.10000
  0
CIRCLE
  8
Contour
 62
   7
 39
0.100
  6
CONTINUOUS
 10
35.17000
 20
70.99000
 30
 0
 40
3.10000
  0
CIRCLE
  8
Contour
 62
   7
 39
0.100
  6
CONTINUOUS
 10
4.95000
 20
97.91000
 30
 0
 40
3.10000
  0
CIRCLE
  8
Contour
 62
   7
 39
0.100
  6
CONTINUOUS
 10
15.36000
 20
97.91000
 30
 0
 40
3.10000
  0
CIRCLE
  8
Contour
 62
   7
 39
0.100
  6
CONTINUOUS
 10
24.76000
 20
97.91000
 30
 0
 40
3.10000
  0
CIRCLE
  8
Contour
 62
   7
 39
0.100
  6
CONTINUOUS
 10
35.17000
 20
97.91000
 30
 0
 40
3.10000
  0
ARC
  8
Contour
 62
   7
 39
0.100
  6
CONTINUOUS
 10
6.00000
 20
3.00000
 30
 0
 40
1.50000
 50
180.00000
 51
270.00000
  0
LINE
  8
Contour
 62
   7
 39
0.100
  6
CONTINUOUS
 10
6.00000
 20
1.50000
 30
 0
 11
9.00000
 21
1.50000
  0
ARC
  8
Contour
 62
   7
 39
0.100
  6
CONTINUOUS
 10
9.00000
 20
3.00000
 30
 0
 40
1.50000
 50
270.00000
 51
360.00000
  0
LINE
  8
Contour
 62
   7
 39
0.100
  6
CONTINUOUS
 10
10.50000
 20
3.00000
 30
 0
 11
10.50000
 21
3.00000
  0
ARC
  8
Contour
 62
   7
 39
0.100
  6
CONTINUOUS
 10
9.00000
 20
3.00000
 30
 0
 40
1.50000
 50
0.00000
 51
90.00000
  0
LINE
  8
Contour
 62
   7
 39
0.100
  6
CONTINUOUS
 10
9.00000
 20
4.50000
 30
 0
 11
6.00000
 21
4.50000
  0
ARC
  8
Contour
 62
   7
 39
0.100
  6
CONTINUOUS
 10
6.00000
 20
3.00000
 30
 0
 40
1.50000
 50
90.00000
 51
180.00000
  0
LINE
  8
Contour
 62
   7
 39
0.100
  6
CONTINUOUS
 10
4.50000
 20
3.00000
 30
 0
 11
4.50000
 21
3.00000
  0
ARC
  8
Contour
 62
   7
 39
0.100
  6
CONTINUOUS
 10
31.30000
 20
3.00000
 30
 0
 40
1.50000
 50
180.00000
 51
270.00000
  0
LINE
  8
Contour
 62
   7
 39
0.100
  6
CONTINUOUS
 10
31.30000
 20
1.50000
 30
 0
 11
34.30000
 21
1.50000
  0
ARC
  8
Contour
 62
   7
 39
0.100
  6
CONTINUOUS
 10
34.30000
 20
3.00000
 30
 0
 40
1.50000
 50
270.00000
 51
360.00000
  0
LINE
  8
Contour
 62
   7
 39
0.100
  6
CONTINUOUS
 10
35.80000
 20
3.00000
 30
 0
 11
35.80000
 21
3.00000
  0
ARC
  8
Contour
 62
   7
 39
0.100
  6
CONTINUOUS
 10
34.30000
 20
3.00000
 30
 0
 40
1.50000
 50
0.00000
 51
90.00000
  0
LINE
  8
Contour
 62
   7
 39
0.100
  6
CONTINUOUS
 10
34.30000
 20
4.50000
 30
 0
 11
31.30000
 21
4.50000
  0
ARC
  8
Contour
 62
   7
 39
0.100
  6
CONTINUOUS
 10
31.30000
 20
3.00000
 30
 0
 40
1.50000
 50
90.00000
 51
180.00000
  0
LINE
  8
Contour
 62
   7
 39
0.100
  6
CONTINUOUS
 10
29.80000
 20
3.00000
 30
 0
 11
29.80000
 21
3.00000
  0
ARC
  8
Contour
 62
   7
 39
0.100
  6
CONTINUOUS
 10
6.00000
 20
125.40000
 30
 0
 40
1.50000
 50
180.00000
 51
270.00000
  0
LINE
  8
Contour
 62
   7
 39
0.100
  6
CONTINUOUS
 10
6.00000
 20
123.90000
 30
 0
 11
9.00000
 21
123.90000
  0
ARC
  8
Contour
 62
   7
 39
0.100
  6
CONTINUOUS
 10
9.00000
 20
125.40000
 30
 0
 40
1.50000
 50
270.00000
 51
360.00000
  0
LINE
  8
Contour
 62
   7
 39
0.100
  6
CONTINUOUS
 10
10.50000
 20
125.40000
 30
 0
 11
10.50000
 21
125.40000
  0
ARC
  8
Contour
 62
   7
 39
0.100
  6
CONTINUOUS
 10
9.00000
 20
125.40000
 30
 0
 40
1.50000
 50
0.00000
 51
90.00000
  0
LINE
  8
Contour
 62
   7
 39
0.100
  6
CONTINUOUS
 10
9.00000
 20
126.90000
 30
 0
 11
6.00000
 21
126.90000
  0
ARC
  8
Contour
 62
   7
 39
0.100
  6
CONTINUOUS
 10
6.00000
 20
125.40000
 30
 0
 40
1.50000
 50
90.00000
 51
180.00000
  0
LINE
  8
Contour
 62
   7
 39
0.100
  6
CONTINUOUS
 10
4.50000
 20
125.40000
 30
 0
 11
4.50000
 21
125.40000
  0
ARC
  8
Contour
 62
   7
 39
0.100
  6
CONTINUOUS
 10
31.30000
 20
125.40000
 30
 0
 40
1.50000
 50
180.00000
 51
270.00000
  0
LINE
  8
Contour
 62
   7
 39
0.100
  6
CONTINUOUS
 10
31.30000
 20
123.90000
 30
 0
 11
34.30000
 21
123.90000
  0
ARC
  8
Contour
 62
   7
 39
0.100
  6
CONTINUOUS
 10
34.30000
 20
125.40000
 30
 0
 40
1.50000
 50
270.00000
 51
360.00000
  0
LINE
  8
Contour
 62
   7
 39
0.100
  6
CONTINUOUS
 10
35.80000
 20
125.40000
 30
 0
 11
35.80000
 21
125.40000
  0
ARC
  8
Contour
 62
   7
 39
0.100
  6
CONTINUOUS
 10
34.30000
 20
125.40000
 30
 0
 40
1.50000
 50
0.00000
 51
90.00000
  0
LINE
  8
Contour
 62
   7
 39
0.100
  6
CONTINUOUS
 10
34.30000
 20
126.90000
 30
 0
 11
31.30000
 21
126.90000
  0
ARC
  8
Contour
 62
   7
 39
0.100
  6
CONTINUOUS
 10
31.30000
 20
125.40000
 30
 0
 40
1.50000
 50
90.00000
 51
180.00000
  0
LINE
  8
Contour
 62
   7
 39
0.100
  6
CONTINUOUS
 10
29.80000
 20
125.40000
 30
 0
 11
29.80000
 21
125.40000
  0
LINE
  8
Reference_points
 62
   1
 39
0.100
  6
CONTINUOUS
 10
-0.45400
 20
0.00000
 30
 0
 11
0.45400
 21
0.00000
  0
LINE
  8
Reference_points
 62
   1
 39
0.100
  6
CONTINUOUS
 10
0.00000
 20
-0.45400
 30
 0
 11
0.00000
 21
0.45400
  0
LINE
  8
Reference_points
 62
   1
 39
0.100
  6
CONTINUOUS
 10
9.70600
 20
112.01000
 30
 0
 11
10.61400
 21
112.01000
  0
LINE
  8
Reference_points
 62
   1
 39
0.100
  6
CONTINUOUS
 10
10.16000
 20
111.55600
 30
 0
 11
10.16000
 21
112.46400
  0
LINE
  8
Reference_points
 62
   1
 39
0.100
  6
CONTINUOUS
 10
29.51600
 20
112.01000
 30
 0
 11
30.42400
 21
112.01000
  0
LINE
  8
Reference_points
 62
   1
 39
0.100
  6
CONTINUOUS
 10
29.97000
 20
111.55600
 30
 0
 11
29.97000
 21
112.46400
  0
LINE
  8
Reference_points
 62
   1
 39
0.100
  6
CONTINUOUS
 10
9.70600
 20
85.09000
 30
 0
 11
10.61400
 21
85.09000
  0
LINE
  8
Reference_points
 62
   1
 39
0.100
  6
CONTINUOUS
 10
10.16000
 20
84.63600
 30
 0
 11
10.16000
 21
85.54400
  0
LINE
  8
Reference_points
 62
   1
 39
0.100
  6
CONTINUOUS
 10
29.51600
 20
85.09000
 30
 0
 11
30.42400
 21
85.09000
  0
LINE
  8
Reference_points
 62
   1
 39
0.100
  6
CONTINUOUS
 10
29.97000
 20
84.63600
 30
 0
 11
29.97000
 21
85.54400
  0
LINE
  8
Reference_points
 62
   1
 39
0.100
  6
CONTINUOUS
 10
9.70600
 20
58.16000
 30
 0
 11
10.61400
 21
58.16000
  0
LINE
  8
Reference_points
 62
   1
 39
0.100
  6
CONTINUOUS
 10
10.16000
 20
57.70600
 30
 0
 11
10.16000
 21
58.61400
  0
LINE
  8
Reference_points
 62
   1
 39
0.100
  6
CONTINUOUS
 10
29.51600
 20
58.16000
 30
 0
 11
30.42400
 21
58.16000
  0
LINE
  8
Reference_points
 62
   1
 39
0.100
  6
CONTINUOUS
 10
29.97000
 20
57.70600
 30
 0
 11
29.97000
 21
58.61400
  0
LINE
  8
Reference_points
 62
   1
 39
0.100
  6
CONTINUOUS
 10
9.70600
 20
31.24000
 30
 0
 11
10.61400
 21
31.24000
  0
LINE
  8
Reference_points
 62
   1
 39
0.100
  6
CONTINUOUS
 10
10.16000
 20
30.78600
 30
 0
 11
10.16000
 21
31.69400
  0
LINE
  8
Reference_points
 62
   1
 39
0.100
  6
CONTINUOUS
 10
29.51600
 20
31.24000
 30
 0
 11
30.42400
 21
31.24000
  0
LINE
  8
Reference_points
 62
   1
 39
0.100
  6
CONTINUOUS
 10
29.97000
 20
30.78600
 30
 0
 11
29.97000
 21
31.69400
  0
LINE
  8
Reference_points
 62
   1
 39
0.100
  6
CONTINUOUS
 10
4.49600
 20
17.14000
 30
 0
 11
5.40400
 21
17.14000
  0
LINE
  8
Reference_points
 62
   1
 39
0.100
  6
CONTINUOUS
 10
4.95000
 20
16.68600
 30
 0
 11
4.95000
 21
17.59400
  0
LINE
  8
Reference_points
 62
   1
 39
0.100
  6
CONTINUOUS
 10
14.90600
 20
17.14000
 30
 0
 11
15.81400
 21
17.14000
  0
LINE
  8
Reference_points
 62
   1
 39
0.100
  6
CONTINUOUS
 10
15.36000
 20
16.68600
 30
 0
 11
15.36000
 21
17.59400
  0
LINE
  8
Reference_points
 62
   1
 39
0.100
  6
CONTINUOUS
 10
24.30600
 20
17.14000
 30
 0
 11
25.21400
 21
17.14000
  0
LINE
  8
Reference_points
 62
   1
 39
0.100
  6
CONTINUOUS
 10
24.76000
 20
16.68600
 30
 0
 11
24.76000
 21
17.59400
  0
LINE
  8
Reference_points
 62
   1
 39
0.100
  6
CONTINUOUS
 10
34.71600
 20
17.14000
 30
 0
 11
35.62400
 21
17.14000
  0
LINE
  8
Reference_points
 62
   1
 39
0.100
  6
CONTINUOUS
 10
35.17000
 20
16.68600
 30
 0
 11
35.17000
 21
17.59400
  0
LINE
  8
Reference_points
 62
   1
 39
0.100
  6
CONTINUOUS
 10
4.49600
 20
44.06000
 30
 0
 11
5.40400
 21
44.06000
  0
LINE
  8
Reference_points
 62
   1
 39
0.100
  6
CONTINUOUS
 10
4.95000
 20
43.60600
 30
 0
 11
4.95000
 21
44.51400
  0
LINE
  8
Reference_points
 62
   1
 39
0.100
  6
CONTINUOUS
 10
14.90600
 20
44.06000
 30
 0
 11
15.81400
 21
44.06000
  0
LINE
  8
Reference_points
 62
   1
 39
0.100
  6
CONTINUOUS
 10
15.36000
 20
43.60600
 30
 0
 11
15.36000
 21
44.51400
  0
LINE
  8
Reference_points
 62
   1
 39
0.100
  6
CONTINUOUS
 10
24.30600
 20
44.06000
 30
 0
 11
25.21400
 21
44.06000
  0
LINE
  8
Reference_points
 62
   1
 39
0.100
  6
CONTINUOUS
 10
24.76000
 20
43.60600
 30
 0
 11
24.76000
 21
44.51400
  0
LINE
  8
Reference_points
 62
   1
 39
0.100
  6
CONTINUOUS
 10
34.71600
 20
44.06000
 30
 0
 11
35.62400
 21
44.06000
  0
LINE
  8
Reference_points
 62
   1
 39
0.100
  6
CONTINUOUS
 10
35.17000
 20
43.60600
 30
 0
 11
35.17000
 21
44.51400
  0
LINE
  8
Reference_points
 62
   1
 39
0.100
  6
CONTINUOUS
 10
4.49600
 20
70.99000
 30
 0
 11
5.40400
 21
70.99000
  0
LINE
  8
Reference_points
 62
   1
 39
0.100
  6
CONTINUOUS
 10
4.95000
 20
70.53600
 30
 0
 11
4.95000
 21
71.44400
  0
LINE
  8
Reference_points
 62
   1
 39
0.100
  6
CONTINUOUS
 10
14.90600
 20
70.99000
 30
 0
 11
15.81400
 21
70.99000
  0
LINE
  8
Reference_points
 62
   1
 39
0.100
  6
CONTINUOUS
 10
15.36000
 20
70.53600
 30
 0
 11
15.36000
 21
71.44400
  0
LINE
  8
Reference_points
 62
   1
 39
0.100
  6
CONTINUOUS
 10
24.30600
 20
70.99000
 30
 0
 11
25.21400
 21
70.99000
  0
LINE
  8
Reference_points
 62
   1
 39
0.100
  6
CONTINUOUS
 10
24.76000
 20
70.53600
 30
 0
 11
24.76000
 21
71.44400
  0
LINE
  8
Reference_points
 62
   1
 39
0.100
  6
CONTINUOUS
 10
34.71600
 20
70.99000
 30
 0
 11
35.62400
 21
70.99000
  0
LINE
  8
Reference_points
 62
   1
 39
0.100
  6
CONTINUOUS
 10
35.17000
 20
70.53600
 30
 0
 11
35.17000
 21
71.44400
  0
LINE
  8
Reference_points
 62
   1
 39
0.100
  6
CONTINUOUS
 10
4.49600
 20
97.91000
 30
 0
 11
5.40400
 21
97.91000
  0
LINE
  8
Reference_points
 62
   1
 39
0.100
  6
CONTINUOUS
 10
4.95000
 20
97.45600
 30
 0
 11
4.95000
 21
98.36400
  0
LINE
  8
Reference_points
 62
   1
 39
0.100
  6
CONTINUOUS
 10
14.90600
 20
97.91000
 30
 0
 11
15.81400
 21
97.91000
  0
LINE
  8
Reference_points
 62
   1
 39
0.100
  6
CONTINUOUS
 10
15.36000
 20
97.45600
 30
 0
 11
15.36000
 21
98.36400
  0
LINE
  8
Reference_points
 62
   1
 39
0.100
  6
CONTINUOUS
 10
24.30600
 20
97.91000
 30
 0
 11
25.21400
 21
97.91000
  0
LINE
  8
Reference_points
 62
   1
 39
0.100
  6
CONTINUOUS
 10
24.76000
 20
97.45600
 30
 0
 11
24.76000
 21
98.36400
  0
LINE
  8
Reference_points
 62
   1
 39
0.100
  6
CONTINUOUS
 10
34.71600
 20
97.91000
 30
 0
 11
35.62400
 21
97.91000
  0
LINE
  8
Reference_points
 62
   1
 39
0.100
  6
CONTINUOUS
 10
35.17000
 20
97.45600
 30
 0
 11
35.17000
 21
98.36400
  0
LINE
  8
Reference_points
 62
   1
 39
0.100
  6
CONTINUOUS
 10
7.84500
 20
7.16600
 30
 0
 11
8.75300
 21
7.16600
  0
LINE
  8
Reference_points
 62
   1
 39
0.100
  6
CONTINUOUS
 10
8.29900
 20
6.71200
 30
 0
 11
8.29900
 21
7.62000
  0
LINE
  8
Reference_points
 62
   1
 39
0.100
  6
CONTINUOUS
 10
9.41800
 20
100.60600
 30
 0
 11
10.32600
 21
100.60600
  0
LINE
  8
Reference_points
 62
   1
 39
0.100
  6
CONTINUOUS
 10
9.87200
 20
100.15200
 30
 0
 11
9.87200
 21
101.06000
  0
LINE
  8
Reference_points
 62
   1
 39
0.100
  6
CONTINUOUS
 10
28.81500
 20
100.61000
 30
 0
 11
29.72300
 21
100.61000
  0
LINE
  8
Reference_points
 62
   1
 39
0.100
  6
CONTINUOUS
 10
29.26900
 20
100.15600
 30
 0
 11
29.26900
 21
101.06400
  0
LINE
  8
Reference_points
 62
   1
 39
0.100
  6
CONTINUOUS
 10
8.99300
 20
73.64100
 30
 0
 11
9.90100
 21
73.64100
  0
LINE
  8
Reference_points
 62
   1
 39
0.100
  6
CONTINUOUS
 10
9.44700
 20
73.18700
 30
 0
 11
9.44700
 21
74.09500
  0
LINE
  8
Reference_points
 62
   1
 39
0.100
  6
CONTINUOUS
 10
28.77400
 20
73.64000
 30
 0
 11
29.68200
 21
73.64000
  0
LINE
  8
Reference_points
 62
   1
 39
0.100
  6
CONTINUOUS
 10
29.22800
 20
73.18600
 30
 0
 11
29.22800
 21
74.09400
  0
LINE
  8
Reference_points
 62
   1
 39
0.100
  6
CONTINUOUS
 10
8.95100
 20
46.66300
 30
 0
 11
9.85900
 21
46.66300
  0
LINE
  8
Reference_points
 62
   1
 39
0.100
  6
CONTINUOUS
 10
9.40500
 20
46.20900
 30
 0
 11
9.40500
 21
47.11700
  0
LINE
  8
Reference_points
 62
   1
 39
0.100
  6
CONTINUOUS
 10
28.85400
 20
46.66000
 30
 0
 11
29.76200
 21
46.66000
  0
LINE
  8
Reference_points
 62
   1
 39
0.100
  6
CONTINUOUS
 10
29.30800
 20
46.20600
 30
 0
 11
29.30800
 21
47.11400
  0
LINE
  8
Reference_points
 62
   1
 39
0.100
  6
CONTINUOUS
 10
8.94100
 20
19.92500
 30
 0
 11
9.84900
 21
19.92500
  0
LINE
  8
Reference_points
 62
   1
 39
0.100
  6
CONTINUOUS
 10
9.39500
 20
19.47100
 30
 0
 11
9.39500
 21
20.37900
  0
LINE
  8
Reference_points
 62
   1
 39
0.100
  6
CONTINUOUS
 10
28.73600
 20
19.93000
 30
 0
 11
29.64400
 21
19.93000
  0
LINE
  8
Reference_points
 62
   1
 39
0.100
  6
CONTINUOUS
 10
29.19000
 20
19.47600
 30
 0
 11
29.19000
 21
20.38400
  0
LINE
  8
Reference_points
 62
   1
 39
0.100
  6
CONTINUOUS
 10
7.04600
 20
3.00000
 30
 0
 11
7.95400
 21
3.00000
  0
LINE
  8
Reference_points
 62
   1
 39
0.100
  6
CONTINUOUS
 10
7.50000
 20
2.54600
 30
 0
 11
7.50000
 21
3.45400
  0
LINE
  8
Reference_points
 62
   1
 39
0.100
  6
CONTINUOUS
 10
32.34600
 20
3.00000
 30
 0
 11
33.25400
 21
3.00000
  0
LINE
  8
Reference_points
 62
   1
 39
0.100
  6
CONTINUOUS
 10
32.80000
 20
2.54600
 30
 0
 11
32.80000
 21
3.45400
  0
LINE
  8
Reference_points
 62
   1
 39
0.100
  6
CONTINUOUS
 10
7.04600
 20
125.40000
 30
 0
 11
7.95400
 21
125.40000
  0
LINE
  8
Reference_points
 62
   1
 39
0.100
  6
CONTINUOUS
 10
7.50000
 20
124.94600
 30
 0
 11
7.50000
 21
125.85400
  0
LINE
  8
Reference_points
 62
   1
 39
0.100
  6
CONTINUOUS
 10
32.34600
 20
125.40000
 30
 0
 11
33.25400
 21
125.40000
  0
LINE
  8
Reference_points
 62
   1
 39
0.100
  6
CONTINUOUS
 10
32.80000
 20
124.94600
 30
 0
 11
32.80000
 21
125.85400
  0
ENDSEC
  0
EOF
