<?xml version="1.0" encoding="UTF-8" standalone="no"?>
<!-- Created with Inkscape (http://www.inkscape.org/) -->

<svg
   xmlns:dc="http://purl.org/dc/elements/1.1/"
   xmlns:cc="http://creativecommons.org/ns#"
   xmlns:rdf="http://www.w3.org/1999/02/22-rdf-syntax-ns#"
   xmlns:svg="http://www.w3.org/2000/svg"
   xmlns="http://www.w3.org/2000/svg"
   xmlns:sodipodi="http://sodipodi.sourceforge.net/DTD/sodipodi-0.dtd"
   xmlns:inkscape="http://www.inkscape.org/namespaces/inkscape"
   version="1.1"
   id="svg3577"
   xml:space="preserve"
   width="8.5in"
   height="11in"
   viewBox="0 0 816 1056"
   sodipodi:docname="graphics.svg"
   inkscape:version="0.92.3 (2405546, 2018-03-11)"><metadata
     id="metadata3583"><rdf:RDF><cc:Work
         rdf:about=""><dc:format>image/svg+xml</dc:format><dc:type
           rdf:resource="http://purl.org/dc/dcmitype/StillImage" /><dc:title></dc:title></cc:Work></rdf:RDF></metadata><defs
     id="defs3581" /><sodipodi:namedview
     pagecolor="#ffffff"
     bordercolor="#666666"
     borderopacity="1"
     objecttolerance="10"
     gridtolerance="10"
     guidetolerance="10"
     inkscape:pageopacity="0"
     inkscape:pageshadow="2"
     inkscape:window-width="1920"
     inkscape:window-height="1017"
     id="namedview3579"
     showgrid="false"
     units="in"
     inkscape:zoom="0.89393939"
     inkscape:cx="193.40483"
     inkscape:cy="473.1941"
     inkscape:window-x="1912"
     inkscape:window-y="-8"
     inkscape:window-maximized="1"
     inkscape:current-layer="g3585" /><g
     id="g3585"
     inkscape:groupmode="layer"
     inkscape:label="graphics"
     transform="translate(0,2.64e-5)"><g
       id="g3591"
       transform="matrix(0.5,0,0,0.5,309.55499,999.645)"><path
         d="M 0,0 0.16,0.96 0.32,1.92 0.64,2.88 1.12,3.84 1.76,4.48 2.4,5.28 3.2,5.92 4,6.24 4.96,6.72 5.92,6.88 H 6.88 7.84 L 8.8,6.72 9.76,6.24 10.72,5.92 11.52,5.28 12.16,4.48 12.8,3.84 13.12,2.88 13.6,1.92 13.76,0.96 V 0 -6.4 -7.36 l -0.16,-0.96 -0.48,-0.96 -0.32,-0.8 -0.64,-0.8 -0.64,-0.8 -0.8,-0.48 -0.96,-0.48 -0.96,-0.32 -0.96,-0.32 H 6.88 5.92 l -0.96,0.32 -0.96,0.32 -0.8,0.48 -0.8,0.48 -0.64,0.8 -0.64,0.8 -0.48,0.8 L 0.32,-8.32 0.16,-7.36 0,-6.4 V 0"
         style="fill:none;stroke:#000000;stroke-width:3.03999996;stroke-linecap:round;stroke-linejoin:round;stroke-miterlimit:10;stroke-dasharray:none;stroke-opacity:1"
         id="path3593"
         inkscape:connector-curvature="0" /></g><g
       id="g3595"
       transform="matrix(0.5,0,0,0.5,324.99499,994.60499)"><path
         d="m 0,0 -0.64,-0.8 -0.48,-0.64 -0.8,-0.64 -0.8,-0.48 -0.8,-0.32 -0.96,-0.32 H -5.44 -6.4 l -0.8,0.16 -0.96,0.32 -0.8,0.48 -0.8,0.48 -0.64,0.64 -0.48,0.8 -0.48,0.8 -0.32,0.96 -0.16,0.8 v 0.96 7.36 0.96 l 0.16,0.96 0.32,0.8 0.48,0.8 0.64,0.8 0.64,0.64 0.8,0.48 0.8,0.48 0.96,0.319999 0.8,0.16 h 0.96 0.96 l 0.96,-0.32 0.8,-0.319999 0.8,-0.48 0.8,-0.64 0.64,-0.64 0.48,-0.8 0.48,-0.8"
         style="fill:none;stroke:#000000;stroke-width:3.03999996;stroke-linecap:round;stroke-linejoin:round;stroke-miterlimit:10;stroke-dasharray:none;stroke-opacity:1"
         id="path3597"
         inkscape:connector-curvature="0" /></g><g
       id="g3599"
       transform="matrix(0.5,0,0,0.5,127.715,506.765)"><path
         d="M 400.32001,972.96002 H 413.28 406.72 v 19.35999"
         style="fill:none;stroke:#000000;stroke-width:3.03999996;stroke-linecap:round;stroke-linejoin:round;stroke-miterlimit:10;stroke-dasharray:none;stroke-opacity:1"
         id="path3601"
         inkscape:connector-curvature="0" /></g><g
       id="g3603"
       transform="matrix(0.5,0,0,0.5,127.715,506.765)"><path
         d="M 418.39999,982.56 H 429.12"
         style="fill:none;stroke:#000000;stroke-width:3.03999996;stroke-linecap:round;stroke-linejoin:round;stroke-miterlimit:10;stroke-dasharray:none;stroke-opacity:1"
         id="path3605"
         inkscape:connector-curvature="0" /></g><g
       id="g3607"
       transform="matrix(0.5,0,0,0.5,127.715,506.765)"><path
         d="m 431.35999,972.96002 h -12.96 v 19.35999 h 12.96"
         style="fill:none;stroke:#000000;stroke-width:3.03999996;stroke-linecap:round;stroke-linejoin:round;stroke-miterlimit:10;stroke-dasharray:none;stroke-opacity:1"
         id="path3609"
         inkscape:connector-curvature="0" /></g><g
       id="g3611"
       transform="matrix(0.5,0,0,0.5,127.715,506.765)"><path
         d="M 436.48001,992.32001 V 972.96002 L 449.44,992.32001 v -19.35999"
         style="fill:none;stroke:#000000;stroke-width:3.03999996;stroke-linecap:round;stroke-linejoin:round;stroke-miterlimit:10;stroke-dasharray:none;stroke-opacity:1"
         id="path3613"
         inkscape:connector-curvature="0" /></g><g
       id="g3615"
       transform="matrix(0.5,0,0,0.5,354.99499,993.24501)"><path
         d="m 0,0 v 13.28 0.96 L 0.32,15.2 0.64,16.16 1.12,16.959999 1.76,17.76 2.4,18.4 3.2,18.879999 4.16,19.360001 4.96,19.52 5.92,19.68 H 6.88 L 7.84,19.52 8.8,19.360001 9.76,18.879999 10.56,18.4 11.2,17.76 11.84,16.959999 12.32,16.16 12.64,15.2 12.8,14.24 12.96,13.28 V 0"
         style="fill:none;stroke:#000000;stroke-width:3.03999996;stroke-linecap:round;stroke-linejoin:round;stroke-miterlimit:10;stroke-dasharray:none;stroke-opacity:1"
         id="path3617"
         inkscape:connector-curvature="0" /></g><g
       id="g3619"
       transform="matrix(0.5,0,0,0.5,127.715,506.765)"><path
         d="m 474.72,986.88 h 10.88001"
         style="fill:none;stroke:#000000;stroke-width:3.03999996;stroke-linecap:round;stroke-linejoin:round;stroke-miterlimit:10;stroke-dasharray:none;stroke-opacity:1"
         id="path3621"
         inkscape:connector-curvature="0" /></g><g
       id="g3623"
       transform="matrix(0.5,0,0,0.5,127.715,506.765)"><path
         d="m 472.64001,992.32001 7.51999,-19.35999 7.51999,19.35999"
         style="fill:none;stroke:#000000;stroke-width:3.03999996;stroke-linecap:round;stroke-linejoin:round;stroke-miterlimit:10;stroke-dasharray:none;stroke-opacity:1"
         id="path3625"
         inkscape:connector-curvature="0" /></g><g
       id="g3627"
       transform="matrix(0.5,0,0,0.5,127.715,506.765)"><path
         d="m 492.79999,972.96002 h 12.96002 -6.40002 v 19.35999"
         style="fill:none;stroke:#000000;stroke-width:3.03999996;stroke-linecap:round;stroke-linejoin:round;stroke-miterlimit:10;stroke-dasharray:none;stroke-opacity:1"
         id="path3629"
         inkscape:connector-curvature="0" /></g><g
       id="g3631"
       transform="matrix(0.5,0,0,0.5,383.15499,999.645)"><path
         d="M 0,0 0.16,0.96 0.32,1.92 0.64,2.88 1.12,3.84 1.76,4.64 2.4,5.28 3.2,5.92 4.16,6.4 4.96,6.72 5.92,6.88 H 6.88 8 L 8.96,6.72 9.76,6.4 10.72,5.92 11.52,5.28 12.16,4.64 12.8,3.84 13.28,2.88 13.6,1.92 13.76,0.96 13.92,0 v -6.4 l -0.16,-0.96 -0.16,-0.96 -0.32,-0.96 -0.48,-0.8 -0.64,-0.8 -0.64,-0.8 -0.8,-0.48 -0.96,-0.48 -0.8,-0.32 L 8,-13.28 H 6.88 5.92 l -0.96,0.32 -0.8,0.32 -0.96,0.48 -0.8,0.48 -0.64,0.8 -0.64,0.8 -0.48,0.8 L 0.32,-8.32 0.16,-7.36 0,-6.4 V 0"
         style="fill:none;stroke:#000000;stroke-width:3.03999996;stroke-linecap:round;stroke-linejoin:round;stroke-miterlimit:10;stroke-dasharray:none;stroke-opacity:1"
         id="path3633"
         inkscape:connector-curvature="0" /></g><g
       id="g3635"
       transform="matrix(0.5,0,0,0.5,392.67498,1002.925)"><path
         d="m 0,0 v -19.360001 h 7.04 0.8 l 0.96,0.16 0.64,0.480002 0.8,0.479999 0.48,0.48 0.48,0.800001 0.48,0.799999 0.16,0.8 v 0.8 0.8 l -0.16,0.8 -0.48,0.8 -0.48,0.64 -0.48,0.64 -0.8,0.48 -0.64,0.32 -0.96,0.32 H 7.04 0 7.52 L 11.84,0"
         style="fill:none;stroke:#000000;stroke-width:3.03999996;stroke-linecap:round;stroke-linejoin:round;stroke-miterlimit:10;stroke-dasharray:none;stroke-opacity:1"
         id="path3637"
         inkscape:connector-curvature="0" /></g><g
       id="g3639"
       transform="matrix(0.5,0,0,0.5,127.715,506.765)"><path
         d="m 330.23999,232.48 4.32001,-4.32 v 19.36"
         style="fill:none;stroke:#000000;stroke-width:3.03999996;stroke-linecap:round;stroke-linejoin:round;stroke-miterlimit:10;stroke-dasharray:none;stroke-opacity:1"
         id="path3641"
         inkscape:connector-curvature="0" /></g><g
       id="g3643"
       transform="matrix(0.5,0,0,0.5,366.27499,621.805)"><path
         d="m 0,0 1.28,-1.12 0.8,-0.48 0.8,-0.48 0.8,-0.16 0.96,-0.16 h 0.8 l 0.8,0.16 0.96,0.32 0.64,0.48 0.8,0.64 0.48,0.64 0.48,0.8 0.32,0.8 0.16,0.8 V 3.2 4 L 9.76,4.96 9.44,5.76 8.8,6.4 -0.16,17.440001 h 10.72"
         style="fill:none;stroke:#000000;stroke-width:3.03999996;stroke-linecap:round;stroke-linejoin:round;stroke-miterlimit:10;stroke-dasharray:none;stroke-opacity:1"
         id="path3645"
         inkscape:connector-curvature="0" /></g><g
       id="g3647"
       transform="matrix(0.5,0,0,0.5,291.235,724.285)"><path
         d="m 0,0 0.48,-0.8 0.48,-0.64 0.48,-0.64 0.64,-0.48 0.8,-0.48 0.8,-0.16 0.8,-0.32 h 0.8 0.8 l 0.8,0.32 0.8,0.32 0.64,0.48 0.64,0.48 0.48,0.64 0.48,0.8 0.16,0.8 0.16,0.8 v 0.8 L 10.08,2.72 9.92,3.52 9.44,4.32 8.96,4.96 8.32,5.6 7.68,5.92 6.88,6.4 6.08,6.56 h -0.8 l 0.8,0.16 0.8,0.16 0.8,0.32 0.64,0.48 0.64,0.48 0.48,0.8 0.48,0.64 0.16,0.8 0.16,0.8 v 0.96 l -0.16,0.8 -0.16,0.8 -0.48,0.64 -0.48,0.64 -0.64,0.64 -0.64,0.48 -0.8,0.32 -0.8,0.159999 -0.8,0.16 -0.96,-0.16 L 3.52,16.48 2.56,16.16 1.92,15.68 1.12,15.04 0.48,14.4 0,13.76"
         style="fill:none;stroke:#000000;stroke-width:3.03999996;stroke-linecap:round;stroke-linejoin:round;stroke-miterlimit:10;stroke-dasharray:none;stroke-opacity:1"
         id="path3649"
         inkscape:connector-curvature="0" /></g><g
       id="g3651"
       transform="matrix(0.5,0,0,0.5,127.715,506.765)"><path
         d="m 483.04001,432 -6.4,16.16 H 487.35999 485.28 v -3.20001 6.4"
         style="fill:none;stroke:#000000;stroke-width:3.03999996;stroke-linecap:round;stroke-linejoin:round;stroke-miterlimit:10;stroke-dasharray:none;stroke-opacity:1"
         id="path3653"
         inkscape:connector-curvature="0" /></g><g
       id="g3655"
       transform="matrix(0.5,0,0,0.5,296.035,824.68501)"><path
         d="M 0,0 H -9.6 V 9.12 L -8.96,8.64 -8,8.16 -7.2,7.84 -6.24,7.68 -5.44,7.52 h 0.96 l 0.96,0.16 0.8,0.32 0.96,0.48 0.64,0.48 0.64,0.64 0.64,0.8 0.48,0.8 0.32,0.96 0.16,0.8 v 0.96 0.96 L 0.8,15.68 0.48,16.639999 0,17.440001 -0.64,18.08 l -0.64,0.639999 -0.8,0.480002 -0.8,0.319999 -0.8,0.32 H -4.64 -5.6 L -6.4,19.68 -7.36,19.360001 -8,18.879999 -8.8,18.24 -9.44,17.6 -9.92,16.799999"
         style="fill:none;stroke:#000000;stroke-width:3.03999996;stroke-linecap:round;stroke-linejoin:round;stroke-miterlimit:10;stroke-dasharray:none;stroke-opacity:1"
         id="path3657"
         inkscape:connector-curvature="0" /></g><g
       id="g3659"
       transform="matrix(0.5,0,0,0.5,366.35499,831.24501)"><path
         d="m 0,0 v -0.8 l 0.16,-0.8 0.48,-0.8 0.32,-0.8 0.64,-0.64 0.64,-0.64 0.8,-0.48 0.8,-0.32 0.8,-0.16 H 5.6 6.4 l 0.96,0.16 0.8,0.32 0.64,0.48 0.64,0.64 0.64,0.64 0.48,0.8 0.32,0.8 0.16,0.8 0.16,0.8 v 1.12 l -0.16,0.96 -0.16,0.8 -0.32,0.8 -0.48,0.8 L 9.44,5.12 8.8,5.76 8.16,6.08 7.36,6.56 6.4,6.72 H 5.6 4.64 L 3.84,6.56 3.04,6.08 2.24,5.76 1.6,5.12 0.96,4.48 0.64,3.68 0.16,2.88 0,2.08 V 1.12 -7.2 -8.16 l 0.16,-0.96 0.32,-0.8 0.48,-0.96 0.64,-0.64 0.64,-0.64 0.8,-0.48 0.96,-0.48 0.8,-0.16 0.96,-0.16 h 0.96 l 0.96,0.32 0.8,0.32 0.8,0.48 0.8,0.64"
         style="fill:none;stroke:#000000;stroke-width:3.03999996;stroke-linecap:round;stroke-linejoin:round;stroke-miterlimit:10;stroke-dasharray:none;stroke-opacity:1"
         id="path3661"
         inkscape:connector-curvature="0" /></g><g
       id="g3663"
       transform="matrix(0.5,0,0,0.5,127.715,506.765)"><path
         d="m 326.72,841.28003 v -3.20001 h 10.72 L 328.79999,857.44"
         style="fill:none;stroke:#000000;stroke-width:3.03999996;stroke-linecap:round;stroke-linejoin:round;stroke-miterlimit:10;stroke-dasharray:none;stroke-opacity:1"
         id="path3665"
         inkscape:connector-curvature="0" /></g><g
       id="g3667"
       transform="matrix(0.5,0,0,0.5,368.595,930.045)"><path
         d="M 0,0 0.8,0.16 1.76,0.32 2.56,0.64 3.2,1.12 3.84,1.6 4.48,2.24 4.96,3.04 5.28,3.84 5.44,4.8 5.6,5.6 5.44,6.56 5.28,7.36 4.96,8.16 4.48,8.96 3.84,9.6 3.2,10.08 2.56,10.56 1.76,10.88 0.8,11.2 H 0 -0.96 l -0.8,-0.32 -0.8,-0.32 -0.8,-0.48 L -4,9.6 -4.64,8.96 -4.96,8.16 -5.44,7.36 -5.6,6.56 V 5.6 4.8 L -5.44,3.84 -4.96,3.04 -4.64,2.24 -4,1.6 -3.36,1.12 -2.56,0.64 -1.76,0.32 -0.96,0.16 0,0 h 0.8 l 0.64,-0.32 0.8,-0.32 0.64,-0.48 0.48,-0.48 0.48,-0.64 0.32,-0.64 0.32,-0.8 v -0.8 -0.8 L 4.16,-6.08 3.84,-6.72 3.36,-7.36 2.88,-8 2.24,-8.48 1.44,-8.8 0.8,-8.96 H 0 -0.8 l -0.8,0.16 -0.64,0.32 -0.64,0.48 -0.64,0.64 -0.48,0.64 -0.32,0.64 -0.16,0.8 -0.16,0.8 0.16,0.8 0.16,0.8 0.32,0.64 0.48,0.64 0.64,0.48 0.64,0.48 0.64,0.32 L -0.8,0 H 0"
         style="fill:none;stroke:#000000;stroke-width:3.03999996;stroke-linecap:round;stroke-linejoin:round;stroke-miterlimit:10;stroke-dasharray:none;stroke-opacity:1"
         id="path3669"
         inkscape:connector-curvature="0" /></g></g></svg>